PathFileType  4	(X/Y/Z) C:\Users\antoi\Documents\MyRepositories\mobilecap\ResultsAnalysis
DataRate	CameraRate	NumFrames	NumMarkers	Units	OrigDataRate	OrigDataStartFrame	OrigNumFrames
100.0	100.0	4	51	mm	100.0	125	142
Frame#	Time	r_knee			r_shank_antsup			r_ankle			r_calc			r_5meta			r_toe			L_knee			L_shank_antsup			L_ankle			L_calc			L_5meta			L_toe			r_sh2			r_sh3			r_sh4			L_sh2			L_sh3			r_thigh1			r_thigh2			r_thigh3			r_thigh4			r_thigh5			L_thigh1			L_thigh2			L_thigh3			L_thigh4			r.ASIS			r.PSIS			L.ASIS			L.PSIS			C7			R_Shoulder			L_Shoulder			R_Sternum			L_Sternum			R_humerus			R_elbow_med			R_elbow_lat			R_forearm			R_wrist_radius			R_wrist_ulna			L_humerus			L_elbow_med			L_elbow_lat			L_forearm			L_wrist_radius			L_wrist_ulna			R_HJC			L_HJC			R_HJC_reg			L_HJC_reg			
		X1	Y1	Z1	X2	Y2	Z2	X3	Y3	Z3	X4	Y4	Z4	X5	Y5	Z5	X6	Y6	Z6	X7	Y7	Z7	X8	Y8	Z8	X9	Y9	Z9	X10	Y10	Z10	X11	Y11	Z11	X12	Y12	Z12	X13	Y13	Z13	X14	Y14	Z14	X15	Y15	Z15	X16	Y16	Z16	X17	Y17	Z17	X18	Y18	Z18	X19	Y19	Z19	X20	Y20	Z20	X21	Y21	Z21	X22	Y22	Z22	X23	Y23	Z23	X24	Y24	Z24	X25	Y25	Z25	X26	Y26	Z26	X27	Y27	Z27	X28	Y28	Z28	X29	Y29	Z29	X30	Y30	Z30	X31	Y31	Z31	X32	Y32	Z32	X33	Y33	Z33	X34	Y34	Z34	X35	Y35	Z35	X36	Y36	Z36	X37	Y37	Z37	X38	Y38	Z38	X39	Y39	Z39	X40	Y40	Z40	X41	Y41	Z41	X42	Y42	Z42	X43	Y43	Z43	X44	Y44	Z44	X45	Y45	Z45	X46	Y46	Z46	X47	Y47	Z47	X48	Y48	Z48	X49	Y49	Z49	X50	Y50	Z50	X51	Y51	Z51	

125	1.24000000	1461.56688	494.70632	-59.14364	1514.46593	438.03486	-78.17677	1520.38142	94.37278	-68.42078	1454.57913	63.47766	-102.21431	1630.61018	45.13882	-45.41553	1674.16955	79.61069	-102.01876	1178.80722	474.04891	-367.04617	1157.95509	374.84168	-380.59390	927.04322	159.60361	-369.37891	846.82015	152.89340	-325.01892	984.40040	47.26390	-405.63954	1034.86049	54.57858	-351.60904	1517.45539	324.19192	-51.03714	1437.35506	433.94841	-45.58412	1443.09530	321.21490	-40.74080	1092.17396	436.18069	-379.47917	1018.11667	338.79954	-389.35787	1411.11082	813.09922	-40.36549	1447.05790	704.22242	-45.17157	1402.48487	667.39340	-11.33497	1308.15340	778.11468	-12.88269	1346.22028	667.41078	-19.92585	1268.81671	728.31879	-407.09194	1248.47968	593.22276	-388.47553	1173.27672	747.60960	-343.80148	1152.60535	608.41841	-340.36543	1390.01456	952.22369	-94.71163	1194.53214	981.28770	-153.07695	1374.13833	911.18592	-343.89405	1180.17457	978.33856	-252.61420	1232.18216	1399.16235	-273.16096	1320.91990	1362.74519	-85.17893	1329.09789	1339.09875	-438.39016	1362.56612	1341.66464	-238.49414	1370.54481	1338.69532	-279.78457	1309.79669	1241.91547	1.38641	1224.86959	1034.11494	2.13642	1240.06732	1064.14179	67.22644	1327.27721	954.13871	99.71608	1383.11543	832.44180	123.57792	1354.95663	823.66241	142.49121	1381.10713	1227.06089	-479.82961	1383.22610	988.44947	-420.99703	1425.66760	1017.46919	-482.62293	1520.25504	969.45323	-433.34606	1626.53923	862.69670	-385.59329	1616.29232	845.01800	-413.98224	1313.42010	870.14461	-99.30438	1292.32198	845.17845	-303.17505	1324.14403	858.59083	-117.01631	1300.31474	853.69963	-282.22382	
126	1.25000000	1473.49626	495.54484	-57.29092	1524.88243	437.30253	-76.56662	1522.20346	93.84717	-68.61047	1455.54327	63.89713	-102.79659	1631.38744	43.48138	-45.34106	1675.63586	76.59759	-102.41503	1199.36364	471.78158	-366.04848	1175.68197	373.69825	-380.20275	937.45514	167.25660	-368.86146	858.20232	165.91520	-323.46493	986.52320	50.37021	-404.79345	1038.23342	54.60325	-351.68846	1525.25238	323.29254	-50.05542	1447.77822	434.82226	-43.93384	1450.94508	322.02109	-39.47520	1112.12310	437.32520	-377.94405	1034.56517	342.80150	-387.97150	1423.88389	814.69327	-38.36939	1460.10411	705.79569	-43.24600	1415.84982	669.10682	-8.86976	1321.71480	779.89778	-9.87402	1359.34884	668.92805	-17.00279	1284.47291	727.26919	-404.15014	1266.88212	591.68802	-386.66021	1188.73872	744.34363	-340.77338	1171.03997	604.71697	-337.82116	1403.39634	953.45423	-92.81111	1207.68241	982.19409	-150.47050	1387.20494	911.51410	-341.61850	1193.23068	978.01988	-249.96257	1245.14060	1399.47222	-268.41202	1334.04000	1361.63244	-80.69164	1342.25182	1341.12323	-434.16343	1375.79332	1342.00101	-234.03356	1383.71974	1339.53779	-275.38551	1323.35060	1239.92694	4.60359	1239.01289	1031.85245	3.14657	1253.93321	1061.29226	68.59414	1341.01520	951.11159	100.53721	1396.91093	829.25537	123.60730	1368.57440	820.30325	142.35811	1393.87774	1229.06266	-476.51106	1392.60836	989.69459	-420.61911	1435.40784	1018.78726	-482.04009	1529.30715	969.29845	-432.78882	1634.34366	861.24794	-385.48877	1624.11075	843.86499	-414.02866	1327.16506	871.25743	-96.65268	1305.56727	845.33820	-300.35573	1337.32768	860.81278	-114.03925	1313.36327	853.89480	-279.02192	
127	1.26000000	1485.02787	496.46878	-55.40527	1534.80713	436.62910	-74.82926	1523.45061	93.53641	-68.75551	1456.10989	64.16480	-103.22860	1631.84182	42.49998	-45.14019	1676.55367	74.48457	-102.65230	1221.21904	469.21564	-365.23522	1194.82145	372.56741	-379.87822	949.42574	175.37496	-368.20470	871.79158	179.84734	-321.51403	989.16598	54.40876	-403.76376	1042.05743	55.14790	-351.84520	1532.44127	322.49886	-48.93265	1457.66698	435.82250	-42.26976	1458.20095	322.99641	-38.22255	1133.53532	438.36783	-376.42031	1052.52786	346.86621	-386.48352	1436.66351	816.47695	-36.19078	1472.97300	707.50060	-41.12229	1429.00258	670.98431	-6.32292	1335.10141	781.85059	-6.87801	1372.26040	670.64809	-14.07318	1300.76222	726.13521	-401.25011	1286.28735	590.06045	-384.90424	1204.67184	740.66176	-337.96564	1190.40217	600.61224	-335.64818	1416.50665	954.80176	-90.69754	1220.62631	983.25675	-148.11906	1400.18307	911.99176	-339.15297	1206.15384	977.89121	-247.58018	1258.02516	1399.94092	-263.70835	1347.15204	1360.74753	-76.30181	1355.21156	1343.19782	-430.00258	1388.95211	1342.47635	-229.65504	1396.78849	1340.50966	-271.06218	1336.99767	1238.16933	7.72987	1253.36529	1029.81806	4.08167	1268.05121	1058.64675	69.89170	1355.09970	948.31803	101.16704	1411.10582	826.31801	123.37280	1382.63585	817.18660	141.97634	1406.35403	1231.09811	-473.28219	1401.56075	991.06302	-420.44122	1444.84114	1020.21891	-481.56101	1537.97922	969.16262	-432.38270	1641.64961	859.69242	-385.60561	1631.38756	842.62116	-414.29379	1340.52319	872.52410	-93.98494	1318.74844	845.64634	-297.54475	1350.24756	863.15187	-110.94043	1326.27280	854.26688	-275.70372	
128	1.27000000	1495.88868	497.31794	-53.47330	1544.12932	435.92606	-72.93569	1524.23305	93.35326	-68.85395	1456.37859	64.33415	-103.49106	1632.07299	41.97142	-44.83333	1677.06606	73.05314	-102.72312	1244.20045	466.43460	-364.53238	1215.21870	371.50682	-379.53580	962.90088	183.89617	-367.39742	887.60313	194.39462	-319.18858	992.59797	59.49502	-402.53681	1046.52478	56.42704	-352.06327	1538.97397	321.72288	-47.65598	1466.91590	436.81347	-40.54827	1464.81792	324.00427	-36.95248	1156.24169	439.33752	-374.84117	1071.89915	350.99619	-384.82441	1449.55440	818.28458	-33.77332	1485.48156	709.09023	-38.78249	1441.66520	672.82806	-3.71962	1348.16756	783.91063	-3.97493	1384.70611	672.48857	-11.19630	1317.55994	724.92756	-398.49645	1306.52717	588.38690	-383.22057	1221.05843	736.61898	-335.35015	1210.55066	596.21597	-333.84913	1429.36007	956.26678	-88.39507	1233.35456	984.38427	-146.11221	1413.04475	912.56206	-336.52801	1218.90447	977.89163	-245.55496	1270.80937	1400.54780	-259.07333	1360.22986	1360.07025	-72.03283	1367.95564	1345.29583	-425.92701	1402.00758	1343.06585	-225.38171	1409.70833	1341.57046	-266.84619	1350.69404	1236.63407	10.76482	1267.90347	1027.99594	4.95775	1282.39039	1056.20426	71.13108	1369.52210	945.76561	101.61355	1425.69194	823.63948	122.87396	1397.13666	814.31852	141.35384	1418.50380	1233.15006	-470.18414	1410.12186	992.54185	-420.42486	1453.95627	1021.75312	-481.16700	1546.30236	969.05692	-432.12282	1648.46910	858.03929	-385.93886	1638.12284	841.29192	-414.77442	1353.49146	873.91981	-91.34048	1331.87541	846.03526	-294.77782	1362.96260	865.50675	-107.74759	1339.05016	854.76496	-272.30560	
